<?xml version="1.0" encoding="UTF-8"?>
<svg version="1.1" xmlns="http://www.w3.org/2000/svg" width="1280" height="720">
<path d="M0 0 C0.66 -0.01933594 1.32 -0.03867187 2 -0.05859375 C4.96321493 0.67642245 6.08655901 2.08548125 8 4.4375 C9.45703125 7.36328125 9.45703125 7.36328125 10.8125 10.75 C11.33653527 12.02426447 11.86264277 13.29767835 12.390625 14.5703125 C12.65810547 15.2190332 12.92558594 15.86775391 13.20117188 16.53613281 C18.00442268 27.96880924 23.69963735 39.06750006 29.08447266 50.23168945 C35.30301451 63.12704758 41.45786684 76.04876867 47.43359375 89.05859375 C49.28454898 93.05130265 51.17254424 97.02564515 53.0625 101 C56.96309008 109.20766806 60.80179851 117.44357292 64.625 125.6875 C64.90924835 126.30020752 65.1934967 126.91291504 65.48635864 127.54418945 C67.97058604 132.89911309 70.45384467 138.25447539 72.9296875 143.61328125 C77.25570952 152.94328398 81.72564402 162.20306156 86.20703125 171.45922852 C89.89049062 179.08039089 93.46910991 186.74461059 97 194.4375 C98.01873328 196.6259788 99.03917054 198.81366659 100.0625 201 C102.41921774 206.0351219 104.75920822 211.07774594 107.08984375 216.125 C108.22595702 218.58361363 109.36273565 221.04191861 110.5 223.5 C110.92820038 224.42563248 110.92820038 224.42563248 111.36505127 225.3699646 C114.95814687 233.12950584 118.64608605 240.81953148 122.53125 248.4375 C124.12141758 251.68550187 125.53820835 254.97801777 126.9375 258.3125 C129.40697381 264.1931403 132.15870341 269.86879385 135.04101562 275.55297852 C137.61128863 280.62926769 140.03019731 285.75978765 142.390625 290.9375 C144.28605789 295.05960648 146.2359837 299.15423553 148.1875 303.25 C152.22995804 311.74184588 156.14116764 320.29064049 160.03588867 328.85107422 C163.04663685 335.44005261 166.18517933 341.93137777 169.5625 348.33984375 C170.76713379 350.93569863 171.70198898 353.419734 172.58984375 356.13110352 C172.85531006 356.93846451 173.12077637 357.7458255 173.39428711 358.57765198 C173.69411499 359.49827675 173.69411499 359.49827675 174 360.4375 C175.17555419 360.43473462 175.17555419 360.43473462 176.37485695 360.43191338 C195.54314623 360.38752827 214.71142511 360.35454402 233.87975502 360.33387566 C243.14983606 360.32361207 252.41988256 360.30964717 261.68994141 360.28662109 C269.78026524 360.26653516 277.87056403 360.25374795 285.96091211 360.24932301 C290.23509792 360.24674105 294.50921217 360.2407782 298.78337479 360.22603989 C374.26309394 359.97651321 374.26309394 359.97651321 404 383.4375 C404.74507812 384.00082031 405.49015625 384.56414062 406.2578125 385.14453125 C420.91056834 396.9529286 429.21614058 415.02915958 431.78199577 433.32778931 C432.21830968 437.5501667 432.18031927 441.78812856 432.20532227 446.02929688 C432.2152162 447.07825008 432.22511013 448.12720329 432.23530388 449.20794296 C432.2669193 452.6906892 432.29173983 456.17344814 432.31640625 459.65625 C432.33714312 462.12311084 432.35823286 464.58996874 432.37965393 467.05682373 C432.42974527 472.97533942 432.47516063 478.89387929 432.51790267 484.8124516 C432.55228727 489.57057771 432.58844089 494.32868734 432.62567139 499.08679199 C432.87359047 530.88535115 433.09974236 562.68434268 433.12293625 594.48397827 C433.12498733 596.67397432 433.12873295 598.86396202 433.13284302 601.05395508 C433.1396895 605.04120013 433.13720789 609.02837631 433.1328125 613.015625 C433.13479141 614.13410828 433.13677032 615.25259155 433.1388092 616.40496826 C433.08225352 635.35524648 433.08225352 635.35524648 430 638.4375 C427.17333984 638.75634766 427.17333984 638.75634766 423.4609375 638.8515625 C422.77230118 638.87101929 422.08366486 638.89047607 421.37416077 638.91052246 C419.04123507 638.972222 416.70831431 639.01803807 414.375 639.0625 C413.56620392 639.080849 412.75740784 639.099198 411.92410278 639.11810303 C395.43095537 639.49218059 378.93426166 639.54174732 362.4375 639.5625 C361.22076599 639.56517883 360.00403198 639.56785767 358.75042725 639.57061768 C355.2281196 639.57650017 351.70590206 639.5747342 348.18359375 639.5703125 C346.62754173 639.57327332 346.62754173 639.57327332 345.04005432 639.57629395 C325.1540731 639.51453655 325.1540731 639.51453655 321 637.4375 C320.99761165 636.38928102 320.99522329 635.34106203 320.99276257 634.26107883 C320.933948 608.74657543 320.85805298 583.2321663 320.76428509 557.71776676 C320.71933424 545.37915463 320.67991786 533.04057132 320.65356445 520.7019043 C320.6305787 509.94656574 320.59717406 499.19131844 320.55129844 488.43605226 C320.52737417 482.74209933 320.50864011 477.04823673 320.50238609 471.3542347 C320.49633174 465.99197258 320.47631882 460.62994156 320.44572449 455.26776505 C320.43694996 453.30262927 320.43322047 451.33746329 320.43499184 449.37230873 C320.43665075 446.68206843 320.41989283 443.99252751 320.39872742 441.30238342 C320.40357499 440.5309546 320.40842257 439.75952577 320.41341704 438.96472031 C320.33066089 432.55870054 319.07332647 426.35551503 315.3125 421.0625 C307.7965361 415.78101185 299.23407496 415.28854116 290.34448242 415.23217773 C289.3781488 415.22227814 288.41181519 415.21237854 287.41619873 415.20217896 C284.22931347 415.17064848 281.04241331 415.14583993 277.85546875 415.12109375 C275.64300657 415.10051693 273.43054825 415.07952026 271.21809387 415.05812073 C265.40010717 415.0029753 259.58208544 414.95353282 253.76403809 414.90527344 C247.82508228 414.85500343 241.88617724 414.79934608 235.94726562 414.74414062 C224.29822047 414.63665114 212.6491312 414.53518573 201 414.4375 C202.42075816 417.61697201 203.84486273 420.79493471 205.26953125 423.97265625 C205.86707214 425.31003845 205.86707214 425.31003845 206.47668457 426.67443848 C209.28780926 432.93877918 212.26805189 439.08199818 215.37890625 445.203125 C218.05897661 450.55034972 220.52784782 455.99180139 223 461.4375 C223.38542969 462.28054688 223.77085937 463.12359375 224.16796875 463.9921875 C226.1283863 468.28770991 228.07001054 472.59132954 229.99609375 476.90234375 C234.14313239 486.17246437 238.37491125 495.39052036 242.75585938 504.55249023 C245.50196867 510.32040566 248.08657304 516.14566095 250.61767578 522.01049805 C252.50833982 526.3714014 254.54175803 530.62396134 256.703125 534.85546875 C261.68401456 544.77223984 266.13142648 554.95490831 270.65429688 565.08544922 C273.42158653 571.2456252 276.39087902 577.26601679 279.453125 583.28515625 C281.38913987 587.23051988 283.04638702 591.25795956 284.69921875 595.328125 C286.97039977 600.75713428 289.51131046 606.06150179 292.02783203 611.37988281 C293.06332171 613.57152194 294.09274347 615.76593994 295.12109375 617.9609375 C295.83064743 619.47399667 296.5402812 620.98701828 297.25 622.5 C297.57911377 623.20213623 297.90822754 623.90427246 298.24731445 624.62768555 C298.56273193 625.29840088 298.87814941 625.96911621 299.203125 626.66015625 C299.50283203 627.30098145 299.80253906 627.94180664 300.11132812 628.60205078 C300.95425345 630.34301578 301.87373044 632.04630366 302.796875 633.74609375 C304 636.4375 304 636.4375 303 639.4375 C268.845 638.9425 268.845 638.9425 234 638.4375 C228.66666667 627.77083333 223.33333333 617.10416667 218 606.4375 C217.38898437 605.22707031 216.77796875 604.01664063 216.1484375 602.76953125 C211.67348135 593.88861606 207.35569332 584.93972152 203.08325195 575.9597168 C199.98688154 569.46398211 196.81274981 563.01391328 193.56640625 556.59204102 C191.95236009 553.38706654 190.40909676 550.17509241 189 546.875 C187.35679298 543.06930408 185.41730348 539.45046773 183.4375 535.8125 C179.39309832 528.36968415 175.77343323 520.7461268 172.15820312 513.08764648 C168.90332347 506.22890688 165.47986442 499.4901307 161.81665039 492.84033203 C159.78008916 489.10400522 158.32004875 485.471569 157 481.4375 C155.84612633 479.01630225 154.66679667 476.63172477 153.4375 474.25 C149.93897815 467.3696277 146.5928387 460.42811093 143.32202148 453.43676758 C140.32019887 447.04243111 137.16292042 440.76334084 134 434.4375 C107.93 434.1075 81.86 433.7775 55 433.4375 C55 445.3175 55 457.1975 55 469.4375 C54.97691546 475.97120312 54.95040381 482.50453697 54.90820312 489.03808594 C54.89825903 490.70839891 54.8884107 492.37871245 54.87864685 494.04902649 C54.85274023 498.43725663 54.82555376 502.82547787 54.79807091 507.21369839 C54.76924934 511.85398832 54.74169693 516.49428582 54.71398926 521.13458252 C54.66172844 529.85634175 54.60838545 538.57809398 54.5546174 547.29984403 C54.48174198 559.13169578 54.41061185 570.96355804 54.33936501 582.79541969 C54.22763559 601.34278847 54.11363808 619.89014259 54 638.4375 C17.37 638.4375 -19.26 638.4375 -57 638.4375 C-57.25077444 602.45584667 -57.25077444 602.45584667 -57.35546875 586.99414062 C-57.42684704 576.45515197 -57.49854963 565.91616645 -57.57275391 555.37719727 C-57.85859064 514.72931869 -58.05896532 474.0867182 -58 433.4375 C-98.59 433.9325 -98.59 433.9325 -140 434.4375 C-143.63 442.3575 -147.26 450.2775 -151 458.4375 C-154.62447738 466.23934113 -158.27542928 474.02828613 -161.9375 481.8125 C-162.27160889 482.52277344 -162.60571777 483.23304688 -162.94995117 483.96484375 C-164.62917814 487.53254464 -166.31256678 491.09818045 -168.00390625 494.66015625 C-171.85738575 502.78983998 -175.60820688 510.95461621 -179.2109375 519.19897461 C-181.01818105 523.31510468 -182.92937529 527.3530695 -184.95996094 531.36352539 C-186.86911845 535.17063644 -188.67913962 539.02509213 -190.5 542.875 C-191.06654297 544.06706055 -191.06654297 544.06706055 -191.64453125 545.28320312 C-193.8541237 549.94916382 -195.99421202 554.63984193 -198.07958984 559.36254883 C-199.37313002 562.2786756 -200.71363867 565.17159004 -202.0625 568.0625 C-202.35068604 568.68020264 -202.63887207 569.29790527 -202.93579102 569.93432617 C-204.80642115 573.9297298 -206.70441173 577.9113216 -208.6171875 581.88671875 C-213.28995525 591.59937109 -217.88787161 601.32208721 -222.21142578 611.19555664 C-225.23798904 618.06775568 -228.58000433 624.75335656 -232 631.4375 C-232.54011719 632.53578125 -233.08023438 633.6340625 -233.63671875 634.765625 C-235 637.4375 -235 637.4375 -236 638.4375 C-238.26920225 638.5616622 -240.5422645 638.61553748 -242.81469727 638.64282227 C-243.52685394 638.65272186 -244.23901062 638.66262146 -244.9727478 638.67282104 C-247.33726628 638.70452212 -249.70180489 638.72922724 -252.06640625 638.75390625 C-253.70166052 638.77446836 -255.33690938 638.79546463 -256.97215271 638.81687927 C-261.28428786 638.87217672 -265.59647158 638.92155201 -269.90869141 638.96972656 C-274.30570824 639.01988572 -278.7026542 639.07560087 -283.09960938 639.13085938 C-291.73301307 639.23853473 -300.3664759 639.33995871 -309 639.4375 C-308.19127727 635.97732533 -306.96348187 633.03078329 -305.4375 629.8125 C-302.95088349 624.50771812 -300.54713471 619.17482958 -298.1875 613.8125 C-295.07472567 606.76304752 -291.82465765 599.78895633 -288.5012207 592.83666992 C-285.09943323 585.70069881 -281.84687613 578.50078405 -278.59912109 571.29370117 C-276.26090683 566.13086917 -273.83454986 561.04385721 -271.25 556 C-268.92385361 551.43988552 -266.90425353 546.83501711 -265.0625 542.0625 C-262.7926226 536.19732993 -260.18473626 530.60459973 -257.32592773 525.00512695 C-254.16018058 518.80008296 -251.13053788 512.53408248 -248.125 506.25 C-247.64844971 505.25742187 -247.17189941 504.26484375 -246.6809082 503.2421875 C-246.23191162 502.30246094 -245.78291504 501.36273437 -245.3203125 500.39453125 C-244.92086426 499.55897705 -244.52141602 498.72342285 -244.10986328 497.86254883 C-242.98977895 495.41516703 -241.99827912 492.93667654 -241 490.4375 C-240.15368591 488.54937275 -239.29465865 486.66691343 -238.42578125 484.7890625 C-237.92675293 483.70906982 -237.42772461 482.62907715 -236.91357422 481.51635742 C-236.12104248 479.806698 -236.12104248 479.806698 -235.3125 478.0625 C-234.49676514 476.29966675 -234.49676514 476.29966675 -233.66455078 474.5012207 C-232.11119085 471.145954 -230.55590951 467.791585 -229 464.4375 C-228.64180176 463.66422363 -228.28360352 462.89094727 -227.91455078 462.09423828 C-223.91397074 453.46027867 -219.83492668 444.86486347 -215.72607422 436.28198242 C-213.39575008 431.4053876 -211.104324 426.51258079 -208.84204102 421.60400391 C-208.30797134 420.4455899 -207.77390167 419.2871759 -207.22364807 418.09365845 C-206.81984421 417.21712616 -206.41604034 416.34059387 -206 415.4375 C-218.86563861 415.36785214 -231.73123204 415.31461364 -244.5970211 415.28206348 C-250.5717474 415.26643753 -256.54634427 415.24525527 -262.52099609 415.21118164 C-268.29168589 415.17847884 -274.06225154 415.16062391 -279.83302689 415.15286827 C-282.02974017 415.14734436 -284.22644701 415.13655765 -286.42310715 415.12030983 C-289.51057126 415.09839057 -292.59752864 415.09553914 -295.68505859 415.09692383 C-296.58417969 415.086138 -297.48330078 415.07535217 -298.40966797 415.0642395 C-305.8287166 415.10001764 -312.95851449 416.15638587 -319 420.6875 C-323.09900601 426.32363327 -323.29499725 432.43289683 -323.2784729 439.13780212 C-323.2842653 439.98907844 -323.2900577 440.84035475 -323.29602563 441.71742731 C-323.31296662 444.55636742 -323.31589704 447.39514438 -323.31884766 450.23413086 C-323.3281499 452.27455033 -323.33831901 454.31496601 -323.34928894 456.3553772 C-323.37656952 461.88576999 -323.39173265 467.41613734 -323.40471697 472.94657969 C-323.42035595 478.72951724 -323.44714375 484.51240288 -323.4727478 490.29530334 C-323.51952194 501.24212619 -323.5562727 512.1889588 -323.58942068 523.13583046 C-323.62765166 535.60011666 -323.6770593 548.06435071 -323.72740483 560.52859294 C-323.83070441 586.16485664 -323.91997128 611.80115384 -324 637.4375 C-326.34165997 638.60832999 -327.71774854 638.56569129 -330.32714844 638.57121277 C-331.69002991 638.57761024 -331.69002991 638.57761024 -333.08044434 638.58413696 C-334.07999146 638.58368378 -335.07953857 638.58323059 -336.109375 638.58276367 C-337.15984009 638.58612228 -338.21030518 638.5894809 -339.29260254 638.59294128 C-342.77841359 638.60247057 -346.26417672 638.60439528 -349.75 638.60546875 C-352.16373719 638.60867957 -354.57747417 638.6120435 -356.99121094 638.61555481 C-362.05534313 638.62155076 -367.11945825 638.62339419 -372.18359375 638.62280273 C-378.68744319 638.622701 -385.19118373 638.63636311 -391.69500732 638.65357494 C-396.68083199 638.66466683 -401.66663008 638.66672282 -406.65246582 638.66619301 C-409.05115129 638.667377 -411.44983735 638.67182203 -413.84851074 638.67952538 C-417.19596091 638.68927017 -420.54317136 638.68646927 -423.890625 638.68041992 C-424.89017212 638.68603943 -425.88971924 638.69165894 -426.91955566 638.69744873 C-427.82814331 638.69325424 -428.73673096 638.68905975 -429.67285156 638.68473816 C-430.46483948 638.68528293 -431.25682739 638.68582769 -432.07281494 638.68638897 C-434 638.4375 -434 638.4375 -436 636.4375 C-436.19492365 633.44856247 -436.26199831 630.55272643 -436.24291992 627.56274414 C-436.24479561 626.62807595 -436.2466713 625.69340776 -436.24860382 624.7304163 C-436.25230814 621.56108423 -436.24139251 618.39196942 -436.23046875 615.22265625 C-436.22960855 612.93521134 -436.22953304 610.64776602 -436.23017883 608.36032104 C-436.22900741 602.06355314 -436.21444523 595.76687673 -436.19723511 589.47013474 C-436.1858911 584.84386629 -436.18013653 580.21760375 -436.17504632 575.59132487 C-436.1367577 541.35994885 -435.97061177 507.12920269 -435.76953125 472.8984375 C-435.76474251 472.08012593 -435.75995376 471.26181436 -435.7550199 470.41870546 C-435.53974925 433.75805404 -435.26209363 397.09784705 -435 360.4375 C-308.28 359.9425 -308.28 359.9425 -179 359.4375 C-176.36 353.8275 -173.72 348.2175 -171 342.4375 C-167.375 335.25 -167.375 335.25 -166.31005859 333.14770508 C-162.71454248 325.98652314 -159.37230918 318.70544973 -156 311.4375 C-152.05177003 302.92929871 -148.08927485 294.43938646 -143.8359375 286.078125 C-140.67275768 279.8463904 -137.69824321 273.52746529 -134.70996094 267.21044922 C-132.20881591 261.93654595 -129.64462604 256.70320426 -127 251.5 C-123.29644834 244.19876645 -119.93261929 236.75476797 -116.5703125 229.29150391 C-114.04212795 223.69184822 -111.42460695 218.16333327 -108.62890625 212.69140625 C-105.89372652 207.22760597 -103.3001111 201.69578722 -100.68945312 196.17163086 C-98.23580294 190.99088741 -95.71527609 185.85025688 -93.14086914 180.72851562 C-91.62153826 177.67749893 -90.17964019 174.59394354 -88.75 171.5 C-88.15279244 170.21333331 -87.5551118 168.92688613 -86.95703125 167.640625 C-86.64330566 166.96580078 -86.32958008 166.29097656 -86.00634766 165.59570312 C-77.47674569 147.303204 -77.47674569 147.303204 -73.125 138.6875 C-66.76316415 126.08753066 -60.79199399 113.28488494 -54.8125 100.5 C-50.46522062 91.2177331 -45.87176277 82.06189127 -41.2109375 72.93359375 C-37.03735428 64.7237829 -33.09520703 56.41422654 -29.21337891 48.06295776 C-26.78749175 42.84442415 -24.35454021 37.62917461 -21.92156982 32.41394043 C-21.30669119 31.09524383 -20.69231203 29.77631423 -20.07843018 28.45715332 C-18.025901 24.04743014 -15.95449867 19.64707149 -13.875 15.25 C-13.34302002 14.10426514 -12.81104004 12.95853027 -12.26293945 11.77807617 C-11.76109131 10.72338135 -11.25924316 9.66868652 -10.7421875 8.58203125 C-10.09032471 7.19528198 -10.09032471 7.19528198 -9.42529297 5.78051758 C-7.0940779 1.94826835 -4.5226886 0.00883338 0 0 Z M-2 145.4375 C-4.63918388 150.67508568 -7.20467571 155.93678158 -9.6875 161.25 C-10.38646962 162.74100223 -11.08569844 164.23188297 -11.78515625 165.72265625 C-12.14625488 166.4923877 -12.50735352 167.26211914 -12.87939453 168.05517578 C-14.78403145 172.10429278 -16.70576874 176.14528626 -18.625 180.1875 C-21.61702743 186.49424924 -24.57230176 192.81599669 -27.484375 199.16015625 C-28.90857741 202.23981044 -30.35444059 205.30814674 -31.80639648 208.37475586 C-35.12287952 215.38033334 -38.34643638 222.41954881 -41.5 229.5 C-44.55764567 236.35586114 -47.74455198 243.1208651 -51.17382812 249.79907227 C-53.96899681 255.2618763 -56.48598326 260.84069523 -59 266.4375 C-68.97353415 288.5605049 -68.97353415 288.5605049 -73.4453125 297.33984375 C-78.76109199 307.93133405 -83.72309482 318.6861748 -88.39941406 329.57348633 C-90.78716935 335.07597571 -93.42373044 340.4355387 -96.16040039 345.7722168 C-98.63176918 350.60705944 -100.78363289 355.45067401 -103 360.4375 C-36.01 360.4375 30.98 360.4375 100 360.4375 C93.72524805 346.30277707 93.72524805 346.30277707 86.98828125 332.4765625 C83.80890407 326.11780814 80.92583378 319.61398397 77.99487305 313.13818359 C75.52195469 307.69014043 72.95416844 302.31371563 70.25488281 296.97460938 C67.94719602 292.30895156 65.83206464 287.55472787 63.6875 282.8125 C60.19786988 275.13766366 56.60970909 267.54198387 52.77807617 260.03271484 C50.51744549 255.56722848 48.47096435 251.03752848 46.5 246.4375 C44.28315853 241.26694442 41.93373231 236.19966699 39.375 231.1875 C35.55207897 223.6951889 32.02039345 216.0757106 28.5 208.4375 C24.65632172 200.10059076 20.76383841 191.80526969 16.60766602 183.61938477 C14.12033316 178.71460665 11.7918959 173.74998936 9.51171875 168.74609375 C8.40112019 166.31540389 7.27981707 163.89176452 6.14453125 161.47265625 C5.82943604 160.80113525 5.51434082 160.12961426 5.18969727 159.43774414 C4.58045662 158.14091156 3.97032264 156.84449814 3.35913086 155.54858398 C1.79619458 152.21597861 0.32666491 148.87122095 -1 145.4375 C-1.33 145.4375 -1.66 145.4375 -2 145.4375 Z " fill="#9F8562" transform="translate(626,28.5625)"/>
</svg>
